<mxfile host="app.diagrams.net" modified="2023-03-17T09:05:46.201Z" agent="5.0 (Windows NT 10.0; Win64; x64) AppleWebKit/537.36 (KHTML, like Gecko) Chrome/111.0.0.0 Safari/537.36" etag="Gs97wC4aS8SRVTXTd7-e" version="21.0.6" type="github">
  <diagram name="페이지-1" id="CV8ElrzNwlyRYN0EQU3e">
    <mxGraphModel dx="1050" dy="541" grid="1" gridSize="10" guides="1" tooltips="1" connect="1" arrows="1" fold="1" page="1" pageScale="1" pageWidth="827" pageHeight="1169" background="#ffffff" math="0" shadow="0">
      <root>
        <mxCell id="0" />
        <mxCell id="1" parent="0" />
        <mxCell id="_tzYyO4BMm2gQtLGPS1A-1" value="이용" style="shape=umlActor;verticalLabelPosition=bottom;verticalAlign=top;html=1;" vertex="1" parent="1">
          <mxGeometry x="30" y="140" width="30" height="60" as="geometry" />
        </mxCell>
        <mxCell id="_tzYyO4BMm2gQtLGPS1A-3" value="게시판 서비스" style="shape=umlFrame;whiteSpace=wrap;html=1;pointerEvents=0;width=120;height=20;" vertex="1" parent="1">
          <mxGeometry x="120" y="40" width="590" height="600" as="geometry" />
        </mxCell>
        <mxCell id="_tzYyO4BMm2gQtLGPS1A-16" style="rounded=0;orthogonalLoop=1;jettySize=auto;html=1;strokeColor=default;startArrow=none;startFill=0;verticalAlign=middle;endArrow=none;endFill=0;" edge="1" parent="1" source="_tzYyO4BMm2gQtLGPS1A-4">
          <mxGeometry relative="1" as="geometry">
            <mxPoint x="60" y="160" as="targetPoint" />
          </mxGeometry>
        </mxCell>
        <mxCell id="_tzYyO4BMm2gQtLGPS1A-4" value="회원가입" style="rounded=1;whiteSpace=wrap;html=1;arcSize=40;fontColor=#000000;fillColor=#ffffc0;strokeColor=#ff0000;" vertex="1" parent="1">
          <mxGeometry x="160" y="160" width="120" height="40" as="geometry" />
        </mxCell>
        <mxCell id="_tzYyO4BMm2gQtLGPS1A-20" style="rounded=0;orthogonalLoop=1;jettySize=auto;html=1;endArrow=none;endFill=0;" edge="1" parent="1" source="_tzYyO4BMm2gQtLGPS1A-6">
          <mxGeometry relative="1" as="geometry">
            <mxPoint x="60" y="160" as="targetPoint" />
          </mxGeometry>
        </mxCell>
        <mxCell id="_tzYyO4BMm2gQtLGPS1A-30" style="rounded=0;orthogonalLoop=1;jettySize=auto;html=1;entryX=0.5;entryY=1;entryDx=0;entryDy=0;dashed=1;" edge="1" parent="1" source="_tzYyO4BMm2gQtLGPS1A-6" target="_tzYyO4BMm2gQtLGPS1A-8">
          <mxGeometry relative="1" as="geometry" />
        </mxCell>
        <mxCell id="_tzYyO4BMm2gQtLGPS1A-6" value="게시판 보기" style="rounded=1;whiteSpace=wrap;html=1;arcSize=40;fontColor=#000000;fillColor=#ffffc0;strokeColor=#ff0000;" vertex="1" parent="1">
          <mxGeometry x="160" y="270" width="120" height="40" as="geometry" />
        </mxCell>
        <mxCell id="_tzYyO4BMm2gQtLGPS1A-21" style="rounded=0;orthogonalLoop=1;jettySize=auto;html=1;endArrow=none;endFill=0;" edge="1" parent="1" source="_tzYyO4BMm2gQtLGPS1A-7">
          <mxGeometry relative="1" as="geometry">
            <mxPoint x="60" y="160" as="targetPoint" />
          </mxGeometry>
        </mxCell>
        <mxCell id="_tzYyO4BMm2gQtLGPS1A-31" style="rounded=0;orthogonalLoop=1;jettySize=auto;html=1;dashed=1;" edge="1" parent="1" source="_tzYyO4BMm2gQtLGPS1A-7">
          <mxGeometry relative="1" as="geometry">
            <mxPoint x="390" y="110" as="targetPoint" />
          </mxGeometry>
        </mxCell>
        <mxCell id="_tzYyO4BMm2gQtLGPS1A-7" value="게시글 보기" style="rounded=1;whiteSpace=wrap;html=1;arcSize=40;fontColor=#000000;fillColor=#ffffc0;strokeColor=#ff0000;" vertex="1" parent="1">
          <mxGeometry x="160" y="430" width="120" height="40" as="geometry" />
        </mxCell>
        <mxCell id="_tzYyO4BMm2gQtLGPS1A-18" style="rounded=0;orthogonalLoop=1;jettySize=auto;html=1;exitX=0;exitY=0.5;exitDx=0;exitDy=0;strokeColor=none;" edge="1" parent="1" source="_tzYyO4BMm2gQtLGPS1A-8">
          <mxGeometry relative="1" as="geometry">
            <mxPoint x="60" y="160" as="targetPoint" />
          </mxGeometry>
        </mxCell>
        <mxCell id="_tzYyO4BMm2gQtLGPS1A-19" style="rounded=0;orthogonalLoop=1;jettySize=auto;html=1;entryX=1;entryY=0.3333333333333333;entryDx=0;entryDy=0;entryPerimeter=0;endArrow=none;endFill=0;" edge="1" parent="1" source="_tzYyO4BMm2gQtLGPS1A-8" target="_tzYyO4BMm2gQtLGPS1A-1">
          <mxGeometry relative="1" as="geometry" />
        </mxCell>
        <mxCell id="_tzYyO4BMm2gQtLGPS1A-27" value="include" style="edgeStyle=orthogonalEdgeStyle;rounded=0;orthogonalLoop=1;jettySize=auto;html=1;entryX=0;entryY=0.5;entryDx=0;entryDy=0;dashed=1;dashPattern=8 8;align=center;labelBackgroundColor=default;fontColor=default;labelPosition=center;verticalLabelPosition=middle;verticalAlign=middle;" edge="1" parent="1" source="_tzYyO4BMm2gQtLGPS1A-8" target="_tzYyO4BMm2gQtLGPS1A-10">
          <mxGeometry relative="1" as="geometry" />
        </mxCell>
        <mxCell id="_tzYyO4BMm2gQtLGPS1A-8" value="회원 로그인" style="rounded=1;whiteSpace=wrap;html=1;arcSize=40;fontColor=#000000;fillColor=#ffffc0;strokeColor=#ff0000;" vertex="1" parent="1">
          <mxGeometry x="330" y="70" width="120" height="40" as="geometry" />
        </mxCell>
        <mxCell id="_tzYyO4BMm2gQtLGPS1A-10" value="인증" style="rounded=1;whiteSpace=wrap;html=1;arcSize=40;fontColor=#000000;fillColor=#ffffc0;strokeColor=#ff0000;" vertex="1" parent="1">
          <mxGeometry x="518" y="70" width="120" height="40" as="geometry" />
        </mxCell>
        <mxCell id="_tzYyO4BMm2gQtLGPS1A-29" value="extend" style="rounded=0;orthogonalLoop=1;jettySize=auto;html=1;entryX=1;entryY=0.5;entryDx=0;entryDy=0;endArrow=classic;endFill=1;dashed=1;align=center;" edge="1" parent="1" source="_tzYyO4BMm2gQtLGPS1A-11" target="_tzYyO4BMm2gQtLGPS1A-8">
          <mxGeometry relative="1" as="geometry" />
        </mxCell>
        <mxCell id="_tzYyO4BMm2gQtLGPS1A-11" value="로그인 실패" style="rounded=1;whiteSpace=wrap;html=1;arcSize=40;fontColor=#000000;fillColor=#ffffc0;strokeColor=#ff0000;" vertex="1" parent="1">
          <mxGeometry x="521" y="160" width="110" height="40" as="geometry" />
        </mxCell>
        <mxCell id="_tzYyO4BMm2gQtLGPS1A-32" value="" style="edgeStyle=orthogonalEdgeStyle;rounded=0;orthogonalLoop=1;jettySize=auto;html=1;dashed=1;" edge="1" parent="1" source="_tzYyO4BMm2gQtLGPS1A-12" target="_tzYyO4BMm2gQtLGPS1A-6">
          <mxGeometry relative="1" as="geometry" />
        </mxCell>
        <mxCell id="_tzYyO4BMm2gQtLGPS1A-12" value="게시판 정렬" style="rounded=1;whiteSpace=wrap;html=1;arcSize=40;fontColor=#000000;fillColor=#ffffc0;strokeColor=#ff0000;" vertex="1" parent="1">
          <mxGeometry x="354" y="270" width="120" height="40" as="geometry" />
        </mxCell>
        <mxCell id="_tzYyO4BMm2gQtLGPS1A-34" style="rounded=0;orthogonalLoop=1;jettySize=auto;html=1;dashed=1;" edge="1" parent="1" source="_tzYyO4BMm2gQtLGPS1A-13">
          <mxGeometry relative="1" as="geometry">
            <mxPoint x="280" y="290" as="targetPoint" />
          </mxGeometry>
        </mxCell>
        <mxCell id="_tzYyO4BMm2gQtLGPS1A-13" value="게시판 검색" style="rounded=1;whiteSpace=wrap;html=1;arcSize=40;fontColor=#000000;fillColor=#ffffc0;strokeColor=#ff0000;" vertex="1" parent="1">
          <mxGeometry x="355" y="320" width="120" height="40" as="geometry" />
        </mxCell>
        <mxCell id="_tzYyO4BMm2gQtLGPS1A-35" style="rounded=0;orthogonalLoop=1;jettySize=auto;html=1;entryX=1;entryY=0.5;entryDx=0;entryDy=0;dashed=1;" edge="1" parent="1" source="_tzYyO4BMm2gQtLGPS1A-14" target="_tzYyO4BMm2gQtLGPS1A-7">
          <mxGeometry relative="1" as="geometry" />
        </mxCell>
        <mxCell id="_tzYyO4BMm2gQtLGPS1A-14" value="게시글 쓰기, 수정, 삭제" style="rounded=1;whiteSpace=wrap;html=1;arcSize=40;fontColor=#000000;fillColor=#ffffc0;strokeColor=#ff0000;" vertex="1" parent="1">
          <mxGeometry x="355" y="420" width="145" height="40" as="geometry" />
        </mxCell>
        <mxCell id="_tzYyO4BMm2gQtLGPS1A-36" style="rounded=0;orthogonalLoop=1;jettySize=auto;html=1;dashed=1;dashPattern=8 8;" edge="1" parent="1" source="_tzYyO4BMm2gQtLGPS1A-15">
          <mxGeometry relative="1" as="geometry">
            <mxPoint x="280" y="450" as="targetPoint" />
          </mxGeometry>
        </mxCell>
        <mxCell id="_tzYyO4BMm2gQtLGPS1A-15" value="댓글보기, 쓰기, 수정, 삭제" style="rounded=1;whiteSpace=wrap;html=1;arcSize=40;fontColor=#000000;fillColor=#ffffc0;strokeColor=#ff0000;" vertex="1" parent="1">
          <mxGeometry x="356" y="470" width="144" height="40" as="geometry" />
        </mxCell>
        <mxCell id="_tzYyO4BMm2gQtLGPS1A-37" value="DB" style="html=1;dropTarget=0;whiteSpace=wrap;" vertex="1" parent="1">
          <mxGeometry x="730" y="70" width="120" height="160" as="geometry" />
        </mxCell>
        <mxCell id="_tzYyO4BMm2gQtLGPS1A-38" value="" style="shape=module;jettyWidth=8;jettyHeight=4;" vertex="1" parent="_tzYyO4BMm2gQtLGPS1A-37">
          <mxGeometry x="1" width="20" height="20" relative="1" as="geometry">
            <mxPoint x="-27" y="7" as="offset" />
          </mxGeometry>
        </mxCell>
      </root>
    </mxGraphModel>
  </diagram>
</mxfile>
